<?xml version="1.0" encoding="UTF-8"?><svg id="a" xmlns="http://www.w3.org/2000/svg" viewBox="0 0 941 941"><defs><style>.b{fill:#e2b730;}.b,.c,.d{stroke-width:0px;}.c{fill:#f7f0f7;}.d{fill:#56542f;}</style></defs><path class="d" d="m760.531915,941H180.468085C80.798314,941,0,860.201686,0,760.531915V180.468085C0,80.798314,80.798314,0,180.468085,0h580.06383c99.669771,0,180.468085,80.798314,180.468085,180.468085v580.06383c0,99.669771-80.798314,180.468085-180.468085,180.468085Z"/><path class="c" d="m743.652068,917.5H210.347932c-104.850118,0-189.847932-84.81162-189.847932-189.432055V195.932055C20.5,91.31162,105.497814,6.5,210.347932,6.5h533.304135c104.850118,0,189.847932,84.81162,189.847932,189.432055v532.13589c0,104.620435-84.997814,189.432055-189.847932,189.432055Z"/><path class="b" d="m846.722475,83.28414c-60.473844,38.831103-224.895563,133.621312-359.649014,112.462209-8.206754-1.288632-15.493626,5.452309-14.907673,13.738926,11.754936,166.239677-69.741779,325.929842-69.741779,325.929842,0,0,159.690165-81.496714,325.929842-69.741779,8.286618.585953,15.027558-6.700919,13.738926-14.907673-21.159103-134.753451,73.631106-299.17517,112.462209-359.649014,3.292579-5.127717-2.704795-11.12509-7.832512-7.832512Z"/><path class="d" d="m432.032181,465.213654l40.688008,40.688013c-5.855967,5.855968-5.855967,15.350366,0,21.206334l-285.145712,285.145738c-13.067259,13.067261-31.306697,16.014036-40.738925,6.581808l-27.737225-27.737229c-9.432227-9.432229-6.485452-27.671668,6.581808-40.738929l285.14571-285.145735c5.855968,5.855969,15.350368,5.855969,21.206336,0Z"/><path class="b" d="m358.332468,396.534354l-210.952228,65.051348c-27.085707,8.352421-54.043298-13.290031-51.742747-41.540799l7.810603-95.9142c1.885021-23.148058,22.992801-39.849631,45.954001-36.361194l203.141634,30.862788c21.394458,3.250405,36.342395,22.901359,33.764096,44.387176l-.000008.000065c-1.886031,15.716919-12.848562,28.850168-27.97535,33.514816Z"/><path class="b" d="m576.366947,553.078667l.000066-.000008c21.485817-2.578299,41.136771,12.369638,44.387176,33.764096l30.862788,203.141634c3.488436,22.9612-13.213137,44.06898-36.361194,45.954001l-95.9142,7.810603c-28.250768,2.300551-49.89322-24.65704-41.540799-51.742747l65.051348-210.952228c4.664648-15.126788,17.797897-26.089319,33.514816-27.97535Z"/><path class="c" d="m572.397227,270.580556l95.171658,95.171658c10.431271,10.431271,31.01971.686767,33.288892-15.749553,2.425471-17.568364,6.106103-38.570756,11.632442-59.664691,6.276569-23.957547,17.004746-49.780684,26.803996-70.759159,7.241005-15.501721-5.70251-28.844825-21.328621-22.050846-19.463887,8.462582-44.302193,18.132086-72.011819,26.273604-23.149293,6.801622-42.733161,10.997326-58.391879,13.578999-16.178969,2.667447-25.419498,22.94516-15.16467,33.199988Z"/></svg>